<?xml version="1.0" standalone="no"?>
<!DOCTYPE svg PUBLIC "-//W3C//DTD SVG 20010904//EN"
 "http://www.w3.org/TR/2001/REC-SVG-20010904/DTD/svg10.dtd">
<svg version="1.0" xmlns="http://www.w3.org/2000/svg"
 width="700.000000pt" height="700.000000pt" viewBox="0 0 700.000000 700.000000"
 preserveAspectRatio="xMidYMid meet">
<metadata>
Created by potrace 1.11, written by Peter Selinger 2001-2013
</metadata>
<g transform="translate(0.000000,700.000000) scale(0.100000,-0.100000)"
fill="#000000" stroke="none">
<path d="M2528 6555 c-2 -1 -31 -6 -65 -9 -35 -4 -68 -8 -75 -11 -7 -2 -29 -6
-48 -9 -90 -13 -276 -79 -401 -142 -322 -163 -590 -439 -746 -771 -46 -97 -93
-234 -109 -313 -3 -14 -9 -43 -14 -65 -17 -77 -28 -187 -29 -282 -1 -45 -4
-53 -20 -53 -10 0 -58 -11 -107 -26 -375 -108 -677 -375 -821 -724 -41 -99
-53 -142 -77 -270 -13 -73 -15 -324 -2 -380 3 -14 9 -41 13 -60 9 -45 7 -38
22 -90 109 -386 438 -715 835 -835 148 -44 216 -53 461 -54 115 -1 211 -4 213
-6 2 -1 -10 -36 -26 -77 -74 -183 -176 -458 -171 -462 2 -1 88 -34 191 -73
l187 -71 9 27 c6 14 14 35 18 46 4 11 8 22 9 25 2 6 18 48 39 100 20 49 98
255 145 380 l39 105 397 3 c376 2 397 1 390 -15 -75 -193 -197 -524 -194 -526
6 -5 379 -145 379 -143 0 3 226 596 255 669 7 16 35 17 401 17 217 0 394 -2
394 -4 0 -2 -45 -122 -100 -266 -55 -144 -100 -265 -100 -269 0 -4 21 -14 48
-23 26 -9 70 -25 97 -36 219 -85 234 -90 240 -73 13 33 218 568 237 619 l19
52 395 0 c217 0 394 -2 394 -4 0 -2 -15 -43 -34 -92 -18 -49 -63 -169 -101
-267 -37 -98 -65 -180 -63 -181 1 -2 23 -10 48 -19 38 -13 212 -79 302 -115
l27 -11 50 130 c28 71 51 132 51 135 0 3 6 20 14 37 13 31 83 213 126 330 l21
57 70 1 c278 5 510 82 729 241 180 130 326 314 414 520 20 48 39 96 41 105 1
10 10 45 18 78 27 102 29 116 32 255 7 253 -49 458 -184 675 -165 266 -450
472 -758 549 -32 7 -70 17 -84 20 -22 5 -27 13 -32 49 -9 63 -54 201 -94 287
-101 215 -289 420 -499 542 -121 71 -313 136 -454 154 -124 15 -305 7 -434
-21 -70 -15 -213 -67 -284 -105 -43 -22 -81 -40 -84 -40 -4 0 -28 33 -55 73
-210 316 -537 553 -912 658 -83 23 -93 25 -211 43 -72 11 -372 20 -382 11z"/>
<path d="M1852 1062 c-94 -246 -173 -455 -177 -464 -5 -13 -2 -18 10 -18 9 0
29 -6 43 -14 15 -8 41 -19 57 -25 17 -5 84 -30 149 -55 66 -25 120 -45 121
-44 1 2 61 161 134 353 73 193 151 396 173 453 26 66 37 107 31 113 -8 8 -214
91 -334 134 l-37 13 -170 -446z"/>
<path d="M3210 1397 c-24 -62 -67 -175 -96 -252 -29 -77 -88 -234 -132 -348
-70 -182 -78 -209 -63 -216 9 -5 48 -20 86 -34 39 -14 117 -44 174 -66 58 -22
106 -40 107 -38 0 1 54 142 119 312 64 171 142 373 171 450 30 76 54 144 54
150 0 6 -57 33 -127 60 -71 26 -156 58 -189 71 l-62 23 -42 -112z"/>
<path d="M4395 1277 c-47 -128 -91 -241 -96 -252 -36 -80 -165 -436 -159 -440
12 -8 374 -145 376 -142 0 1 40 106 89 232 48 127 102 268 120 315 74 193 135
357 135 367 0 9 -105 52 -301 124 l-77 28 -87 -232z"/>
</g>
</svg>
